<?xml version="1.0" encoding="iso-8859-1"?>
<!-- Generator: Adobe Illustrator 19.0.0, SVG Export Plug-In . SVG Version: 6.00 Build 0)  -->
<svg version="1.1" id="Layer_1" xmlns="http://www.w3.org/2000/svg" xmlns:xlink="http://www.w3.org/1999/xlink" x="0px" y="0px"
	 viewBox="0 0 512 512" style="enable-background:new 0 0 512 512;" xml:space="preserve">
<path style="fill:#AFE164;" d="M155.612,214.308V20.48C93.348,46.995,43.703,97.645,18.468,160.548l137.143,137.143L155.612,214.308
	L155.612,214.308z"/>
<path style="fill:#D7E664;" d="M214.308,155.61L351.452,18.468C321.92,6.582,289.737,0,256,0c-35.657,0-69.577,7.314-100.388,20.48
	v193.828L214.308,155.61z"/>
<path style="fill:#FFAA64;" d="M491.52,155.61H297.692l58.697,58.698l137.143,137.143C505.418,321.92,512,289.737,512,256
	C512,220.343,504.686,186.423,491.52,155.61z"/>
<path style="fill:#FF6469;" d="M356.388,297.692V491.52c62.263-26.515,111.908-77.165,137.143-140.068L356.388,214.308V297.692z"/>
<path style="fill:#C3B4FA;" d="M297.692,356.388L160.548,493.532C190.08,505.417,222.263,512,256,512
	c35.658,0,69.577-7.314,100.388-20.48V297.692L297.692,356.388z"/>
<path style="fill:#7DD2F0;" d="M214.308,356.388H20.48c26.515,62.263,77.165,111.908,140.068,137.143l137.143-137.143H214.308z"/>
<path style="fill:#7DE6C3;" d="M155.612,297.692L18.468,160.548C6.582,190.08,0,222.263,0,256c0,35.657,7.314,69.577,20.48,100.388
	h193.828L155.612,297.692z"/>
<path style="fill:#FFE669;" d="M297.692,155.61H491.52C465.005,93.348,414.355,43.702,351.452,18.468L214.308,155.61H297.692z"/>
<g>
</g>
<g>
</g>
<g>
</g>
<g>
</g>
<g>
</g>
<g>
</g>
<g>
</g>
<g>
</g>
<g>
</g>
<g>
</g>
<g>
</g>
<g>
</g>
<g>
</g>
<g>
</g>
<g>
</g>
</svg>
