<?xml version="1.0" standalone="no"?><!DOCTYPE svg PUBLIC "-//W3C//DTD SVG 1.1//EN" "http://www.w3.org/Graphics/SVG/1.1/DTD/svg11.dtd"><svg t="1540643640557" class="icon" style="" viewBox="0 0 1024 1024" version="1.1" xmlns="http://www.w3.org/2000/svg" p-id="2028" xmlns:xlink="http://www.w3.org/1999/xlink" width="200" height="200"><defs><style type="text/css"></style></defs><path d="M419.052586 937.013857l-37.318954-107.323331-47.52234-22.868847-107.194394 37.71088-115.623367-144.93188 60.643172-96.110965-11.754718-51.402717L63.977615 491.805052l41.229007-180.690292 113.01189-12.592806 32.844036-41.208541-12.971429-112.906489L405.096736 63.98836l80.224136 80.486102 52.745295 0 80.234369-80.486102 166.996408 80.418564-12.96222 112.843044 32.867572 41.271986 113.015983 12.592806 41.190121 180.690292-96.265484 60.286038-11.726066 51.399647 60.643172 96.104825L796.440749 844.532559l-107.198487-37.71088-47.491641 22.868847-37.34556 107.323331L419.052586 937.013857 419.052586 937.013857zM458.834638 881.025705l105.690134 0 31.901571-91.62786 89.422635-43.096541L777.43693 778.531356l65.955154-82.705654-51.714825-82.080413 22.073738-96.742345 82.284051-51.547003-23.50125-103.063307-96.54587-10.737552-61.878303-77.54819 11.067057-96.404654-95.275947-45.902446-68.556399 68.726268-99.264794 0-68.563562-68.726268-95.269807 45.902446 11.06808 96.40977-61.845557 77.543074-96.543823 10.737552-23.50739 103.098099 82.250282 51.512211 22.102391 96.736205-51.806923 82.08246L245.921457 778.531356l91.583858-32.230052 89.428775 43.096541L458.834638 881.025705 458.834638 881.025705zM511.630075 667.678642c-92.552929 0-167.845753-75.315336-167.845753-167.888731 0-92.539626 75.293847-167.822217 167.845753-167.822217 92.553952 0 167.858032 75.283614 167.858032 167.822217C679.488107 592.363306 604.185051 667.678642 511.630075 667.678642L511.630075 667.678642zM511.630075 383.538233c-64.210417 0-116.449175 52.237735-116.449175 116.443036 0 64.25135 52.238758 116.52183 116.449175 116.52183 64.230883 0 116.483968-52.270481 116.483968-116.52183C628.114043 435.775968 575.860958 383.538233 511.630075 383.538233L511.630075 383.538233zM511.630075 383.538233" p-id="2029"></path></svg>